# xmcd
#
# Track frame offsets:
#	150
#	24391
#	41611
#	59108
#	86284
#	110063
#	112309
#	134531
#	161561
#	181723
#
# Disc length: 2669 seconds
#
# Revision: 0
# Processed by: cddbd v1.5PL3 Copyright (c) Steve Scherf et al.
# Submitted via: dBpowerAMP V4.0
#
DISCID=890a6b0a
DTITLE=Joe Rapolla - Listen to this
DYEAR=2000
DGENRE=Blues
TTITLE0=I'm getting closer
TTITLE1=I'll be there for you
TTITLE2=Annie
TTITLE3=Something about her I like
TTITLE4=Gonna lose my way
TTITLE5=Message from John
TTITLE6=Lisa
TTITLE7=Cool in town
TTITLE8=Without you
TTITLE9=Daniel
EXTD=http://www.joerapolla.com/
EXTT0=
EXTT1=
EXTT2=
EXTT3=
EXTT4=
EXTT5=
EXTT6=
EXTT7=
EXTT8=
EXTT9=
PLAYORDER=
